# xmcd
#
# Track frame offsets:
#	150
#	11855
#	24012
#	44030
#	71896
#	114122
#	138114
#	155812
#	172307
#	191185
#	203322
#	226711
#	242745
#	253548
#	271792
#
# Disc length: 3836 seconds
#
# Revision: 0
# Processed by: cddbd v1.4PL0 Copyright (c) Steve Scherf et al.
# Submitted via: EasyCDDAExtractor 4.6.0.1
#
DISCID=c90efa0f
DTITLE=BLUES BREAKERS - Live!
DYEAR=2000
DGENRE=Blues
TTITLE0=Ling ting tong
TTITLE1=Shakin' blues
TTITLE2=So good to me
TTITLE3=Trouble on the way
TTITLE4=Have you ever loved a woman
TTITLE5=The road
TTITLE6=Tell me it's all right
TTITLE7=Belimba
TTITLE8=Love is gone
TTITLE9=Side by side
TTITLE10=All are changing
TTITLE11=Talk alone
TTITLE12=Drivin' south
TTITLE13=I thank you
TTITLE14=Final
EXTD=
EXTT0=
EXTT1=
EXTT2=
EXTT3=
EXTT4=
EXTT5=
EXTT6=
EXTT7=
EXTT8=
EXTT9=
EXTT10=
EXTT11=
EXTT12=
EXTT13=
EXTT14=
PLAYORDER=
